<svg xmlns="http://www.w3.org/2000/svg" version="1.1" xmlns:xlink="http://www.w3.org/1999/xlink" xmlns:svgjs="http://svgjs.dev/svgjs" width="1000" height="623" viewBox="0 0 1000 623"><g transform="matrix(1,0,0,1,-0.6060606060606233,0.25222672064785456)"><svg viewBox="0 0 396 247" data-background-color="#ffffff" preserveAspectRatio="xMidYMid meet" height="623" width="1000" xmlns="http://www.w3.org/2000/svg" xmlns:xlink="http://www.w3.org/1999/xlink"><g id="tight-bounds" transform="matrix(1,0,0,1,0.2400000000000091,-0.09999999999999432)"><svg viewBox="0 0 395.52 247.2" height="247.2" width="395.52"><g><svg></svg></g><g><svg viewBox="0 0 395.52 247.2" height="247.2" width="395.52"><g transform="matrix(1,0,0,1,75.54432000000001,88.3182702421087)"><svg viewBox="0 0 244.43135999999996 70.56345951578258" height="70.56345951578258" width="244.43135999999996"><g><svg viewBox="0 0 370.46142076547756 106.94634054461783" height="70.56345951578258" width="244.43135999999996"><g transform="matrix(1,0,0,1,0,27.678105017938968)"><svg viewBox="0 0 244.43135999999998 51.59013050873989" height="51.59013050873989" width="244.43135999999998"><g id="textblocktransform"><svg viewBox="0 0 244.43135999999998 51.59013050873989" height="51.59013050873989" width="244.43135999999998" id="textblock"><g><svg viewBox="0 0 244.43135999999998 51.59013050873989" height="51.59013050873989" width="244.43135999999998"><g transform="matrix(1,0,0,1,0,0)"><svg width="244.43135999999998" viewBox="0.75 -39.95000076293945 191.63999938964844 40.45000076293945" height="51.59013050873989" data-palette-color="#883d1a"><path d="M17.35-34.65L17.35-2Q17.35 0.4 14.35 0.4L14.35 0.4Q11.4 0.4 11.4-2L11.4-2 11.4-34.65 2.65-34.65Q0.85-34.65 0.75-37.2L0.75-37.2Q0.75-39.7 2.65-39.7L2.65-39.7 26.1-39.7Q28-39.7 27.9-37.2L27.9-37.2Q27.9-34.65 26.1-34.65L26.1-34.65 17.35-34.65ZM55.95-0.6L46.5-16.45 42.65-16.45Q41.8-16.45 41.32-17.13 40.85-17.8 40.85-18.95L40.85-18.95Q40.85-21.5 42.95-21.5L42.95-21.5 48.8-21.5Q50.65-21.5 51.4-22.55 52.15-23.6 52.15-24.85L52.15-24.85 52.15-31.3Q52.15-32.55 51.4-33.6 50.65-34.65 48.8-34.65L48.8-34.65 38.25-34.65 38.25-2.05Q38.25 0.35 35.3 0.35L35.3 0.35Q32.35 0.35 32.35-2.05L32.35-2.05 32.35-36.7Q32.35-38.5 33.27-39.1 34.2-39.7 35.5-39.7L35.5-39.7 50.05-39.7Q51.35-39.7 52.75-39.15 54.15-38.6 55.45-37.75L55.45-37.75 55.4-37.75Q56.7-36.8 57.4-35.27 58.1-33.75 58.1-31.75L58.1-31.75 58.1-24.45Q58.1-20.4 55.4-18.4L55.4-18.4Q54.85-18 54.22-17.65 53.6-17.3 52.95-16.95L52.95-16.95 60.95-3.75Q61.1-3.5 61.25-3.1 61.4-2.7 61.4-2.45L61.4-2.45Q61.4-1.25 59.7-0.15L59.7-0.15 59.7-0.2Q58.55 0.5 57.75 0.5L57.75 0.5Q56.6 0.5 55.9-0.65L55.9-0.65 55.95-0.6ZM90.2-1.2L79.2-34.8 68.25-1.2 68.25-1.25Q67.95-0.5 67.42-0.03 66.89 0.45 66.14 0.45L66.14 0.45Q65.75 0.45 65.37 0.38 65 0.3 64.59 0.2L64.59 0.2 64.64 0.2Q61.8-0.7 62.55-3L62.55-3 73.95-37.65Q74.2-38.45 74.82-39 75.45-39.55 76.3-39.65L76.3-39.65Q77.15-39.8 77.95-39.88 78.75-39.95 79.2-39.95L79.2-39.95Q79.65-39.95 80.45-39.88 81.25-39.8 82.09-39.7L82.09-39.7Q82.8-39.6 83.47-38.95 84.15-38.3 84.5-37.65L84.5-37.65Q87.3-29.05 90.17-20.33 93.05-11.6 95.84-3L95.84-3Q96.55-0.7 93.75 0.2L93.75 0.2Q93.34 0.3 93.02 0.38 92.7 0.45 92.3 0.45L92.3 0.45Q91.59 0.45 91.02-0.03 90.45-0.5 90.2-1.25L90.2-1.25 90.2-1.2ZM82.95-12L82.95-12Q82.95-10.4 81.82-9.28 80.7-8.15 79.09-8.15L79.09-8.15Q77.5-8.15 76.4-9.28 75.3-10.4 75.3-12L75.3-12Q75.3-13.6 76.4-14.73 77.5-15.85 79.09-15.85L79.09-15.85Q80.7-15.85 81.82-14.73 82.95-13.6 82.95-12ZM127.29-11.3L127.29-8Q127.29-3.95 124.59-1.95L124.59-1.95Q123.29-1 121.92-0.48 120.54 0.05 119.24 0.05L119.24 0.05 108.34 0.05Q107.04 0.05 105.67-0.48 104.29-1 102.99-1.95L102.99-1.95Q101.69-2.95 100.99-4.42 100.29-5.9 100.29-8L100.29-8 100.29-31.75Q100.29-33.75 100.99-35.27 101.69-36.8 102.99-37.75L102.99-37.75 102.94-37.75Q104.24-38.6 105.64-39.15 107.04-39.7 108.34-39.7L108.34-39.7 119.24-39.7Q120.54-39.7 121.94-39.15 123.34-38.6 124.64-37.75L124.64-37.75 124.59-37.75Q125.89-36.8 126.59-35.27 127.29-33.75 127.29-31.75L127.29-31.75 127.29-28.3Q127.29-25.9 124.29-25.9L124.29-25.9Q121.34-25.9 121.34-28.3L121.34-28.3 121.34-31.3Q121.34-32.55 120.59-33.6 119.84-34.65 117.99-34.65L117.99-34.65 109.59-34.65Q107.74-34.65 106.99-33.6 106.24-32.55 106.24-31.3L106.24-31.3 106.24-8.4Q106.24-7.1 106.99-6.05 107.74-5 109.59-5L109.59-5 117.99-5Q119.84-5 120.59-6.05 121.34-7.1 121.34-8.4L121.34-8.4 121.34-11.3Q121.34-13.65 124.29-13.65L124.29-13.65Q127.29-13.65 127.29-11.3L127.29-11.3ZM156.04 0.05L137.74 0.05Q135.89 0.05 135.24-0.9 134.59-1.85 134.59-3L134.59-3 134.59-36.7Q134.59-37.85 135.24-38.78 135.89-39.7 137.74-39.7L137.74-39.7 155.14-39.7Q156.99-39.7 157.09-37.2L157.09-37.2Q157.19-34.65 155.14-34.65L155.14-34.65 140.49-34.65 140.49-5 156.04-5Q157.89-5 157.94-2.55L157.94-2.55Q158.04 0.05 156.04 0.05L156.04 0.05ZM153.29-20.65L153.29-20.65Q153.29-18.9 152.07-17.7 150.84-16.5 149.09-16.5L149.09-16.5Q147.39-16.5 146.19-17.7 144.99-18.9 144.99-20.65L144.99-20.65Q144.99-22.4 146.19-23.6 147.39-24.8 149.09-24.8L149.09-24.8Q150.84-24.8 152.07-23.6 153.29-22.4 153.29-20.65ZM186.94-0.6L177.49-16.45 173.64-16.45Q172.79-16.45 172.31-17.13 171.84-17.8 171.84-18.95L171.84-18.95Q171.84-21.5 173.94-21.5L173.94-21.5 179.79-21.5Q181.64-21.5 182.39-22.55 183.14-23.6 183.14-24.85L183.14-24.85 183.14-31.3Q183.14-32.55 182.39-33.6 181.64-34.65 179.79-34.65L179.79-34.65 169.24-34.65 169.24-2.05Q169.24 0.35 166.29 0.35L166.29 0.35Q163.34 0.35 163.34-2.05L163.34-2.05 163.34-36.7Q163.34-38.5 164.26-39.1 165.19-39.7 166.49-39.7L166.49-39.7 181.04-39.7Q182.34-39.7 183.74-39.15 185.14-38.6 186.44-37.75L186.44-37.75 186.39-37.75Q187.69-36.8 188.39-35.27 189.09-33.75 189.09-31.75L189.09-31.75 189.09-24.45Q189.09-20.4 186.39-18.4L186.39-18.4Q185.84-18 185.21-17.65 184.59-17.3 183.94-16.95L183.94-16.95 191.94-3.75Q192.09-3.5 192.24-3.1 192.39-2.7 192.39-2.45L192.39-2.45Q192.39-1.25 190.69-0.15L190.69-0.15 190.69-0.2Q189.54 0.5 188.74 0.5L188.74 0.5Q187.59 0.5 186.89-0.65L186.89-0.65 186.94-0.6Z" opacity="1" transform="matrix(1,0,0,1,0,0)" fill="#000000" class="undefined-text-0" data-fill-palette-color="primary" id="text-0"></path></svg></g></svg></g></svg></g></svg></g><g transform="matrix(1,0,0,1,256.6105516499813,0)"><svg viewBox="0 0 113.85086911549627 106.94634054461783" height="106.94634054461783" width="113.85086911549627"><g><svg xmlns="http://www.w3.org/2000/svg" xmlns:xlink="http://www.w3.org/1999/xlink" version="1.1" x="0" y="0" viewBox="0.2930000126361847 4.557000160217285 99.41400146484375 93.38500213623047" enable-background="new 0 0 100 100" xml:space="preserve" height="106.94634054461783" width="113.85086911549627" class="icon-icon-0" data-fill-palette-color="accent" id="icon-0"><g fill="#4d331f" data-fill-palette-color="accent"><path d="M29.168 81.498V46.742l22.164-11.781c1.219-0.647 1.682-2.161 1.034-3.381-0.649-1.219-2.162-1.683-3.382-1.034L25.868 42.833c-0.864 0.46-1.341 0.792-1.606 1.729-0.172 0.547-0.094 1.376-0.094 1.861v35.074c-2.979 1.038-5.125 3.867-5.125 7.195v9.25h15.25v-9.25C34.293 85.365 32.146 82.536 29.168 81.498z" fill="#000000" data-fill-palette-color="accent"></path><path d="M20.168 48.79L17.5 47.332v6.533c0 3.068 0.955 5.986 2.668 8.634V48.79z" fill="#000000" data-fill-palette-color="accent"></path><path d="M49.999 65.094l-2.538-1.388-14.293-8.404v17.169c4.91 1.992 10.67 3.14 16.832 3.14 17.949 0 32.5-9.734 32.5-21.745v-6.534L52.537 63.706 49.999 65.094z" fill="#000000" data-fill-palette-color="accent"></path><path d="M50 4.557L0.293 32.002l0.209 0.115 20.001 10.931c0.805-2.468 2.602-3.442 3.487-3.913l23.116-12.287c0.937-0.498 1.991-0.761 3.049-0.761 2.407 0 4.608 1.32 5.743 3.452 1.68 3.166 0.473 7.108-2.689 8.789L33.167 48.98l16.832 10.188 49.559-27.084 0.149-0.082L50 4.557z" fill="#000000" data-fill-palette-color="accent"></path><path d="M50.066 30.098c0.06-0.002 0.12 0 0.18 0.001-0.031-0.001-0.061-0.012-0.092-0.012C50.125 30.087 50.096 30.097 50.066 30.098z" fill="#000000" data-fill-palette-color="accent"></path></g></svg></g></svg></g></svg></g></svg></g><g><path d="M245.816 0c68.262 0 123.6 55.338 123.6 123.6 0 68.262-55.338 123.6-123.6 123.6-54.524 0-100.802-35.304-117.221-84.3l1.62 0c16.359 48.134 61.935 82.765 115.601 82.765 67.415 0 122.065-54.65 122.065-122.065 0-67.415-54.65-122.065-122.065-122.065-53.665 0-99.242 34.632-115.601 82.765l-1.62 0c16.419-48.996 62.697-84.3 117.221-84.3z" fill="#000000" stroke="transparent" data-fill-palette-color="tertiary"></path></g></svg></g><defs></defs></svg><rect width="395.52" height="247.2" fill="none" stroke="none" visibility="hidden"></rect></g></svg></g></svg>